# xmcd
#
# Track frame offsets:
#	150
#	19635
#	37502
#	53413
#	68293
#	86522
#	104628
#	119673
#	137553
#	154732
#	171785
#	190437
#	205364
#	223248
#	236673
#	252805
#	265261
#	284351
#	298899
#	317241
#
# Disc length: 4422 seconds
#
# Revision: 0
# Processed by: cddbd v1.4PL0 Copyright (c) Steve Scherf et al.
# Submitted via: MusicWizard 6.0.1
#
DISCID=26114414
DTITLE=Various Artist - The One - Gary Allan
DYEAR=1900
DGENRE=Country
TTITLE0=Gary Allan - The One
TTITLE1=George Fox - I Gave My Word
TTITLE2=George Strait - I Cross My Heart
TTITLE3=Glen Campbell - Rhinestone Cowboy
TTITLE4=Joe Nichols - The Impossible
TTITLE5=Kellie Coffey - When You Lie Next To Me
TTITLE6=Kenny Chesney - The Good Stuff
TTITLE7=Kenny Chesney - Young
TTITLE8=Lee Ann Womack - Something Worth Leaving Behind
TTITLE9=Lisa Brokop - Whiskey And Wine
TTITLE10=Lonestar - Not A Day Goes By
TTITLE11=Michelle Wright - Shut Up And Kiss Me Or Just Shut Up
TTITLE12=Rebecca Lynn Howard - Foregive
TTITLE13=Steve Fox - Cheap Red Wine
TTITLE14=Steve Holy - Good Morning Beautiful
TTITLE15=Emeralds - Chicken Dance
TTITLE16=Judds, The - Grandpa (Tell Me About The Good Old Days)
TTITLE17=Judds, The - Mama He's Crazy
TTITLE18=Tim Mcgraw - The Cowboy In Me
TTITLE19=Toby Keith - Courtesy Of The Red White and Blue
EXTD=
EXTT0=
EXTT1=
EXTT2=
EXTT3=
EXTT4=
EXTT5=
EXTT6=
EXTT7=
EXTT8=
EXTT9=
EXTT10=
EXTT11=
EXTT12=
EXTT13=
EXTT14=
EXTT15=
EXTT16=
EXTT17=
EXTT18=
EXTT19=
PLAYORDER=
